<?xml version="1.0" standalone="no"?><!DOCTYPE svg PUBLIC "-//W3C//DTD SVG 1.1//EN" "http://www.w3.org/Graphics/SVG/1.1/DTD/svg11.dtd"><svg xmlns="http://www.w3.org/2000/svg" viewBox="0 0 650 400" version="1.1"><clipPath id="box"><rect x="0" y="0" width="650" height="400" style="fill:none;stroke:none;" /></clipPath><g clip-path="url(#box)"><rect x="0.00" y="0.00" width="650.00" height="400.00" style="fill:#FFFFFF;stroke:none;" /><path d="M0.00 360.00 L650.00 360.00 M0.00 310.00 L650.00 310.00 M0.00 260.00 L650.00 260.00 M0.00 210.00 L650.00 210.00 M0.00 160.00 L650.00 160.00 M0.00 110.00 L650.00 110.00 M0.00 60.00 L650.00 60.00 M0.00 10.00 L650.00 10.00 M20.00 0.00 L20.00 400.00 M70.00 0.00 L70.00 400.00 M120.00 0.00 L120.00 400.00 M170.00 0.00 L170.00 400.00 M220.00 0.00 L220.00 400.00 M270.00 0.00 L270.00 400.00 M320.00 0.00 L320.00 400.00 M370.00 0.00 L370.00 400.00 M420.00 0.00 L420.00 400.00 M470.00 0.00 L470.00 400.00 M520.00 0.00 L520.00 400.00 M570.00 0.00 L570.00 400.00 M620.00 0.00 L620.00 400.00 " style="fill:none;stroke:#D0D0D0;stroke-width:1;" /><path d="M320.00 0.00 L320.00 400.00 " style="fill:none;stroke:#000000;stroke-width:1;" /><path d="M313.50 410.00 L326.50 410.00 M313.50 360.00 L326.50 360.00 M313.50 310.00 L326.50 310.00 M313.50 260.00 L326.50 260.00 M313.50 210.00 L326.50 210.00 M313.50 160.00 L326.50 160.00 M313.50 110.00 L326.50 110.00 M313.50 60.00 L326.50 60.00 M313.50 10.00 L326.50 10.00 " style="fill:none;stroke:#000000;stroke-width:1;" /><path d="M0.00 210.00 L650.00 210.00 " style="fill:none;stroke:#000000;stroke-width:1;" /><path d="M-30.00 203.50 L-30.00 216.50 M20.00 203.50 L20.00 216.50 M70.00 203.50 L70.00 216.50 M120.00 203.50 L120.00 216.50 M170.00 203.50 L170.00 216.50 M220.00 203.50 L220.00 216.50 M270.00 203.50 L270.00 216.50 M320.00 203.50 L320.00 216.50 M370.00 203.50 L370.00 216.50 M420.00 203.50 L420.00 216.50 M470.00 203.50 L470.00 216.50 M520.00 203.50 L520.00 216.50 M570.00 203.50 L570.00 216.50 M620.00 203.50 L620.00 216.50 " style="fill:none;stroke:#000000;stroke-width:1;" /><text x="328.125" y="362.5" text-anchor="start" style="font:10px Droid Sans,Trebuchet MS,Arial,Helvetica,sans-serif;stroke:none;fill:#000000">-3</text><text x="328.125" y="312.5" text-anchor="start" style="font:10px Droid Sans,Trebuchet MS,Arial,Helvetica,sans-serif;stroke:none;fill:#000000">-2</text><text x="328.125" y="262.5" text-anchor="start" style="font:10px Droid Sans,Trebuchet MS,Arial,Helvetica,sans-serif;stroke:none;fill:#000000">-1</text><text x="328.125" y="212.5" text-anchor="start" style="font:10px Droid Sans,Trebuchet MS,Arial,Helvetica,sans-serif;stroke:none;fill:#000000">0</text><text x="328.125" y="162.5" text-anchor="start" style="font:10px Droid Sans,Trebuchet MS,Arial,Helvetica,sans-serif;stroke:none;fill:#000000">1</text><text x="328.125" y="112.50000000000001" text-anchor="start" style="font:10px Droid Sans,Trebuchet MS,Arial,Helvetica,sans-serif;stroke:none;fill:#000000">2</text><text x="328.125" y="62.50000000000001" text-anchor="start" style="font:10px Droid Sans,Trebuchet MS,Arial,Helvetica,sans-serif;stroke:none;fill:#000000">3</text><text x="328.125" y="12.500000000000009" text-anchor="start" style="font:10px Droid Sans,Trebuchet MS,Arial,Helvetica,sans-serif;stroke:none;fill:#000000">4</text><text x="20.000000000000018" y="226.125" text-anchor="middle" style="font:10px Droid Sans,Trebuchet MS,Arial,Helvetica,sans-serif;stroke:none;fill:#000000">-6</text><text x="70.00000000000003" y="226.125" text-anchor="middle" style="font:10px Droid Sans,Trebuchet MS,Arial,Helvetica,sans-serif;stroke:none;fill:#000000">-5</text><text x="120.00000000000003" y="226.125" text-anchor="middle" style="font:10px Droid Sans,Trebuchet MS,Arial,Helvetica,sans-serif;stroke:none;fill:#000000">-4</text><text x="170" y="226.125" text-anchor="middle" style="font:10px Droid Sans,Trebuchet MS,Arial,Helvetica,sans-serif;stroke:none;fill:#000000">-3</text><text x="220" y="226.125" text-anchor="middle" style="font:10px Droid Sans,Trebuchet MS,Arial,Helvetica,sans-serif;stroke:none;fill:#000000">-2</text><text x="270" y="226.125" text-anchor="middle" style="font:10px Droid Sans,Trebuchet MS,Arial,Helvetica,sans-serif;stroke:none;fill:#000000">-1</text><text x="320" y="226.125" text-anchor="middle" style="font:10px Droid Sans,Trebuchet MS,Arial,Helvetica,sans-serif;stroke:none;fill:#000000">0</text><text x="370" y="226.125" text-anchor="middle" style="font:10px Droid Sans,Trebuchet MS,Arial,Helvetica,sans-serif;stroke:none;fill:#000000">1</text><text x="420" y="226.125" text-anchor="middle" style="font:10px Droid Sans,Trebuchet MS,Arial,Helvetica,sans-serif;stroke:none;fill:#000000">2</text><text x="470" y="226.125" text-anchor="middle" style="font:10px Droid Sans,Trebuchet MS,Arial,Helvetica,sans-serif;stroke:none;fill:#000000">3</text><text x="520" y="226.125" text-anchor="middle" style="font:10px Droid Sans,Trebuchet MS,Arial,Helvetica,sans-serif;stroke:none;fill:#000000">4</text><text x="570" y="226.125" text-anchor="middle" style="font:10px Droid Sans,Trebuchet MS,Arial,Helvetica,sans-serif;stroke:none;fill:#000000">5</text><text x="620" y="226.125" text-anchor="middle" style="font:10px Droid Sans,Trebuchet MS,Arial,Helvetica,sans-serif;stroke:none;fill:#000000">6</text><path d="M-10.00 200.00 L-0.25 110.00 L0.75 110.00 L2.75 110.00 L4.75 110.00 L6.75 110.00 L8.75 110.00 L10.75 110.00 L12.75 110.00 L14.75 110.00 L16.75 110.00 L18.75 110.00 L20.75 110.00 L22.75 110.00 L24.75 110.00 L26.75 110.00 L28.75 110.00 L30.75 110.00 L32.75 110.00 L34.75 110.00 L36.75 110.00 L38.75 110.00 L40.75 110.00 L42.75 110.00 L44.75 110.00 L46.75 110.00 L48.75 110.00 L50.75 110.00 L52.75 110.00 L54.75 110.00 L56.75 110.00 L58.75 110.00 L60.75 110.00 L62.75 110.00 L64.75 110.00 L66.75 110.00 L68.75 110.00 L70.75 110.00 L72.75 110.00 L74.75 110.00 L76.75 110.00 L78.75 110.00 L80.75 110.00 L82.75 110.00 L84.75 110.00 L86.75 110.00 L88.75 110.00 L90.75 110.00 L92.75 110.00 L94.75 110.00 L96.75 110.00 L98.75 110.00 L100.75 110.00 L102.75 110.00 L104.75 110.00 L106.75 110.00 L108.75 110.00 L110.75 110.00 L112.75 110.00 L114.75 110.00 L116.75 110.00 L118.75 110.00 L120.75 110.00 L122.75 110.00 L124.75 110.00 L126.75 110.00 L128.75 110.00 L130.75 110.00 L132.75 110.00 L134.75 110.00 L136.75 110.00 L138.75 110.00 L140.75 110.00 L142.75 110.00 L144.75 110.00 L146.75 110.00 L148.75 110.00 L150.75 110.00 L152.75 110.00 L154.75 110.00 L156.75 110.00 L158.75 110.00 L160.75 110.00 L162.75 110.00 L164.75 110.00 L166.75 110.00 L168.75 110.00 L170.75 110.00 L172.75 110.00 L174.75 110.00 L176.75 110.00 L178.75 110.00 L180.75 110.00 L182.75 110.00 L184.75 110.00 L186.75 110.00 L188.75 110.00 L190.75 110.00 L192.75 110.00 L194.75 110.00 L196.75 110.00 L198.75 110.00 L200.75 110.00 L202.75 110.00 L204.75 110.00 L206.75 110.00 L208.75 110.00 L210.75 110.00 L212.75 110.00 L214.75 110.00 L216.75 110.00 L218.75 110.00 L220.75 110.00 L222.75 110.00 L224.75 110.00 L226.75 110.00 L228.75 110.00 L230.75 110.00 L232.75 110.00 L234.75 110.00 L236.75 110.00 L238.75 110.00 L240.75 110.00 L242.75 110.00 L244.75 110.00 L246.75 110.00 L248.75 110.00 L250.75 110.00 L252.75 110.00 L254.75 110.00 L256.75 110.00 L258.75 110.00 L260.75 110.00 L262.75 110.00 L264.75 110.00 L266.75 110.00 L268.75 110.00 L270.75 110.00 L272.75 110.00 L274.75 110.00 L276.75 110.00 L278.75 110.00 L280.75 110.00 L282.75 110.00 L284.75 110.00 L286.75 110.00 L288.75 110.00 L290.75 110.00 L292.75 110.00 L294.75 110.00 L296.75 110.00 L298.75 110.00 L300.75 110.00 L302.75 110.00 L304.75 110.00 L306.75 110.00 L308.75 110.00 L310.75 110.00 L312.75 110.00 L314.75 110.00 L316.75 110.00 L318.75 110.00 L320.75 110.00 L322.75 110.00 L324.75 110.00 L326.75 110.00 L328.75 110.00 L330.75 110.00 L332.75 110.00 L334.75 110.00 L336.75 110.00 L338.75 110.00 L340.75 110.00 L342.75 110.00 L344.75 110.00 L346.75 110.00 L348.75 110.00 L350.75 110.00 L352.75 110.00 L354.75 110.00 L356.75 110.00 L358.75 110.00 L360.75 110.00 L362.75 110.00 L364.75 110.00 L366.75 110.00 L368.75 110.00 L370.75 110.00 L372.75 110.00 L374.75 110.00 L376.75 110.00 L378.75 110.00 L380.75 110.00 L382.75 110.00 L384.75 110.00 L386.75 110.00 L388.75 110.00 L390.75 110.00 L392.75 110.00 L394.75 110.00 L396.75 110.00 L398.75 110.00 L400.75 110.00 L402.75 110.00 L404.75 110.00 L406.75 110.00 L408.75 110.00 L410.75 110.00 L412.75 110.00 L414.75 110.00 L416.75 110.00 L418.75 110.00 L420.75 110.00 L422.75 110.00 L424.75 110.00 L426.75 110.00 L428.75 110.00 L430.75 110.00 L432.75 110.00 L434.75 110.00 L436.75 110.00 L438.75 110.00 L440.75 110.00 L442.75 110.00 L444.75 110.00 L446.75 110.00 L448.75 110.00 L450.75 110.00 L452.75 110.00 L454.75 110.00 L456.75 110.00 L458.75 110.00 L460.75 110.00 L462.75 110.00 L464.75 110.00 L466.75 110.00 L468.75 110.00 L470.75 110.00 L472.75 110.00 L474.75 110.00 L476.75 110.00 L478.75 110.00 L480.75 110.00 L482.75 110.00 L484.75 110.00 L486.75 110.00 L488.75 110.00 L490.75 110.00 L492.75 110.00 L494.75 110.00 L496.75 110.00 L498.75 110.00 L500.75 110.00 L502.75 110.00 L504.75 110.00 L506.75 110.00 L508.75 110.00 L510.75 110.00 L512.75 110.00 L514.75 110.00 L516.75 110.00 L518.75 110.00 L520.75 110.00 L522.75 110.00 L524.75 110.00 L526.75 110.00 L528.75 110.00 L530.75 110.00 L532.75 110.00 L534.75 110.00 L536.75 110.00 L538.75 110.00 L540.75 110.00 L542.75 110.00 L544.75 110.00 L546.75 110.00 L548.75 110.00 L550.75 110.00 L552.75 110.00 L554.75 110.00 L556.75 110.00 L558.75 110.00 L560.75 110.00 L562.75 110.00 L564.75 110.00 L566.75 110.00 L568.75 110.00 L570.75 110.00 L572.75 110.00 L574.75 110.00 L576.75 110.00 L578.75 110.00 L580.75 110.00 L582.75 110.00 L584.75 110.00 L586.75 110.00 L588.75 110.00 L590.75 110.00 L592.75 110.00 L594.75 110.00 L596.75 110.00 L598.75 110.00 L600.75 110.00 L602.75 110.00 L604.75 110.00 L606.75 110.00 L608.75 110.00 L610.75 110.00 L612.75 110.00 L614.75 110.00 L616.75 110.00 L618.75 110.00 L620.75 110.00 L622.75 110.00 L624.75 110.00 L626.75 110.00 L628.75 110.00 L630.75 110.00 L632.75 110.00 L634.75 110.00 L636.75 110.00 L638.75 110.00 L640.75 110.00 L642.75 110.00 L644.75 110.00 L646.75 110.00 L648.75 110.00 " style="fill:none;stroke:#000000;stroke-width:1;" /></g></svg>