<?xml version="1.0" standalone="no"?><!DOCTYPE svg PUBLIC "-//W3C//DTD SVG 1.1//EN" "http://www.w3.org/Graphics/SVG/1.1/DTD/svg11.dtd"><svg xmlns="http://www.w3.org/2000/svg" viewBox="0 0 650 400" version="1.1"><clipPath id="box"><rect x="0" y="0" width="650" height="400" style="fill:none;stroke:none;" /></clipPath><g clip-path="url(#box)"><rect x="0.00" y="0.00" width="650.00" height="400.00" style="fill:#FFFFFF;stroke:none;" /><path d="M0.00 400.00 L650.00 400.00 M0.00 350.00 L650.00 350.00 M0.00 300.00 L650.00 300.00 M0.00 250.00 L650.00 250.00 M0.00 200.00 L650.00 200.00 M0.00 150.00 L650.00 150.00 M0.00 100.00 L650.00 100.00 M0.00 50.00 L650.00 50.00 M0.00 0.00 L650.00 0.00 M25.00 0.00 L25.00 400.00 M75.00 0.00 L75.00 400.00 M125.00 0.00 L125.00 400.00 M175.00 0.00 L175.00 400.00 M225.00 0.00 L225.00 400.00 M275.00 0.00 L275.00 400.00 M325.00 0.00 L325.00 400.00 M374.00 0.00 L374.00 400.00 M425.00 0.00 L425.00 400.00 M475.00 0.00 L475.00 400.00 M525.00 0.00 L525.00 400.00 M575.00 0.00 L575.00 400.00 M625.00 0.00 L625.00 400.00 " style="fill:none;stroke:#D0D0D0;stroke-width:1;" /><path d="M325.00 0.00 L325.00 400.00 " style="fill:none;stroke:#000000;stroke-width:1;" /><path d="M318.50 400.00 L331.50 400.00 M318.50 350.00 L331.50 350.00 M318.50 300.00 L331.50 300.00 M318.50 250.00 L331.50 250.00 M318.50 200.00 L331.50 200.00 M318.50 150.00 L331.50 150.00 M318.50 100.00 L331.50 100.00 M318.50 50.00 L331.50 50.00 M318.50 0.00 L331.50 0.00 " style="fill:none;stroke:#000000;stroke-width:1;" /><path d="M0.00 200.00 L650.00 200.00 " style="fill:none;stroke:#000000;stroke-width:1;" /><path d="M-25.00 193.50 L-25.00 206.50 M25.00 193.50 L25.00 206.50 M75.00 193.50 L75.00 206.50 M125.00 193.50 L125.00 206.50 M175.00 193.50 L175.00 206.50 M225.00 193.50 L225.00 206.50 M275.00 193.50 L275.00 206.50 M325.00 193.50 L325.00 206.50 M375.00 193.50 L375.00 206.50 M425.00 193.50 L425.00 206.50 M475.00 193.50 L475.00 206.50 M525.00 193.50 L525.00 206.50 M575.00 193.50 L575.00 206.50 M625.00 193.50 L625.00 206.50 " style="fill:none;stroke:#000000;stroke-width:1;" /><text x="333.125" y="352.5" text-anchor="start" style="font:10px Droid Sans,Trebuchet MS,Arial,Helvetica,sans-serif;stroke:none;fill:#000000">-3</text><text x="333.125" y="302.5" text-anchor="start" style="font:10px Droid Sans,Trebuchet MS,Arial,Helvetica,sans-serif;stroke:none;fill:#000000">-2</text><text x="333.125" y="252.5" text-anchor="start" style="font:10px Droid Sans,Trebuchet MS,Arial,Helvetica,sans-serif;stroke:none;fill:#000000">-1</text><text x="333.125" y="202.5" text-anchor="start" style="font:10px Droid Sans,Trebuchet MS,Arial,Helvetica,sans-serif;stroke:none;fill:#000000">0</text><text x="333.125" y="152.5" text-anchor="start" style="font:10px Droid Sans,Trebuchet MS,Arial,Helvetica,sans-serif;stroke:none;fill:#000000">1</text><text x="333.125" y="102.5" text-anchor="start" style="font:10px Droid Sans,Trebuchet MS,Arial,Helvetica,sans-serif;stroke:none;fill:#000000">2</text><text x="333.125" y="52.5" text-anchor="start" style="font:10px Droid Sans,Trebuchet MS,Arial,Helvetica,sans-serif;stroke:none;fill:#000000">3</text><text x="25" y="216.125" text-anchor="middle" style="font:10px Droid Sans,Trebuchet MS,Arial,Helvetica,sans-serif;stroke:none;fill:#000000">-6</text><text x="75" y="216.125" text-anchor="middle" style="font:10px Droid Sans,Trebuchet MS,Arial,Helvetica,sans-serif;stroke:none;fill:#000000">-5</text><text x="125" y="216.125" text-anchor="middle" style="font:10px Droid Sans,Trebuchet MS,Arial,Helvetica,sans-serif;stroke:none;fill:#000000">-4</text><text x="175" y="216.125" text-anchor="middle" style="font:10px Droid Sans,Trebuchet MS,Arial,Helvetica,sans-serif;stroke:none;fill:#000000">-3</text><text x="225" y="216.125" text-anchor="middle" style="font:10px Droid Sans,Trebuchet MS,Arial,Helvetica,sans-serif;stroke:none;fill:#000000">-2</text><text x="275" y="216.125" text-anchor="middle" style="font:10px Droid Sans,Trebuchet MS,Arial,Helvetica,sans-serif;stroke:none;fill:#000000">-1</text><text x="325" y="216.125" text-anchor="middle" style="font:10px Droid Sans,Trebuchet MS,Arial,Helvetica,sans-serif;stroke:none;fill:#000000">0</text><text x="374.99999999999994" y="216.125" text-anchor="middle" style="font:10px Droid Sans,Trebuchet MS,Arial,Helvetica,sans-serif;stroke:none;fill:#000000">1</text><text x="425" y="216.125" text-anchor="middle" style="font:10px Droid Sans,Trebuchet MS,Arial,Helvetica,sans-serif;stroke:none;fill:#000000">2</text><text x="475" y="216.125" text-anchor="middle" style="font:10px Droid Sans,Trebuchet MS,Arial,Helvetica,sans-serif;stroke:none;fill:#000000">3</text><text x="525" y="216.125" text-anchor="middle" style="font:10px Droid Sans,Trebuchet MS,Arial,Helvetica,sans-serif;stroke:none;fill:#000000">4</text><text x="575" y="216.125" text-anchor="middle" style="font:10px Droid Sans,Trebuchet MS,Arial,Helvetica,sans-serif;stroke:none;fill:#000000">5</text><text x="625" y="216.125" text-anchor="middle" style="font:10px Droid Sans,Trebuchet MS,Arial,Helvetica,sans-serif;stroke:none;fill:#000000">6</text><path d="M-10.00 200.00 L-0.25 207.69 L0.75 207.71 L2.75 207.76 L4.75 207.81 L6.75 207.86 L8.75 207.91 L10.75 207.96 L12.75 208.01 L14.75 208.06 L16.75 208.11 L18.75 208.16 L20.75 208.22 L22.75 208.27 L24.75 208.33 L26.75 208.38 L28.75 208.44 L30.75 208.50 L32.75 208.55 L34.75 208.61 L36.75 208.67 L38.75 208.73 L40.75 208.80 L42.75 208.86 L44.75 208.92 L46.75 208.98 L48.75 209.05 L50.75 209.12 L52.75 209.18 L54.75 209.25 L56.75 209.32 L58.75 209.39 L60.75 209.46 L62.75 209.53 L64.75 209.61 L66.75 209.68 L68.75 209.76 L70.75 209.83 L72.75 209.91 L74.75 209.99 L76.75 210.07 L78.75 210.15 L80.75 210.24 L82.75 210.32 L84.75 210.41 L86.75 210.49 L88.75 210.58 L90.75 210.67 L92.75 210.76 L94.75 210.86 L96.75 210.95 L98.75 211.05 L100.75 211.15 L102.75 211.25 L104.75 211.35 L106.75 211.45 L108.75 211.56 L110.75 211.67 L112.75 211.78 L114.75 211.89 L116.75 212.00 L118.75 212.12 L120.75 212.24 L122.75 212.36 L124.75 212.48 L126.75 212.61 L128.75 212.74 L130.75 212.87 L132.75 213.00 L134.75 213.14 L136.75 213.28 L138.75 213.42 L140.75 213.57 L142.75 213.72 L144.75 213.87 L146.75 214.03 L148.75 214.18 L150.75 214.35 L152.75 214.51 L154.75 214.68 L156.75 214.86 L158.75 215.04 L160.75 215.22 L162.75 215.41 L164.75 215.60 L166.75 215.80 L168.75 216.00 L170.75 216.21 L172.75 216.42 L174.75 216.64 L176.75 216.86 L178.75 217.09 L180.75 217.33 L182.75 217.57 L184.75 217.83 L186.75 218.08 L188.75 218.35 L190.75 218.62 L192.75 218.90 L194.75 219.19 L196.75 219.49 L198.75 219.80 L200.75 220.12 L202.75 220.45 L204.75 220.79 L206.75 221.14 L208.75 221.51 L210.75 221.88 L212.75 222.27 L214.75 222.68 L216.75 223.09 L218.75 223.53 L220.75 223.98 L222.75 224.45 L224.75 224.94 L226.75 225.45 L228.75 225.97 L230.75 226.53 L232.75 227.10 L234.75 227.70 L236.75 228.33 L238.75 228.99 L240.75 229.67 L242.75 230.40 L244.75 231.15 L246.75 231.95 L248.75 232.79 L250.75 233.67 L252.75 234.60 L254.75 235.59 L256.75 236.63 L258.67 237.69 L260.48 238.75 L262.19 239.80 L263.81 240.86 L265.35 241.91 L266.81 242.96 L268.20 244.01 L269.52 245.06 L270.78 246.11 L271.98 247.16 L273.13 248.20 L274.23 249.24 L275.29 250.29 L276.30 251.33 L277.26 252.37 L278.19 253.41 L279.09 254.45 L279.95 255.49 L280.78 256.53 L281.57 257.57 L282.34 258.60 L283.08 259.64 L283.80 260.67 L284.49 261.71 L285.16 262.74 L285.80 263.78 L286.43 264.81 L287.03 265.84 L287.62 266.87 L288.18 267.91 L288.73 268.94 L289.27 269.97 L289.79 271.00 L290.29 272.03 L290.78 273.06 L291.25 274.08 L291.72 275.11 L292.17 276.14 L292.60 277.17 L293.03 278.19 L293.44 279.22 L293.85 280.25 L294.24 281.27 L294.62 282.30 L295.00 283.32 L295.36 284.35 L295.72 285.37 L296.06 286.40 L296.40 287.42 L296.73 288.44 L297.06 289.47 L297.37 290.49 L297.68 291.51 L297.98 292.54 L298.28 293.56 L298.57 294.58 L298.85 295.60 L299.13 296.62 L299.40 297.65 L299.66 298.67 L299.92 299.69 L300.18 300.71 L300.43 301.73 L300.67 302.75 L300.91 303.77 L301.14 304.79 L301.37 305.81 L301.60 306.83 L301.82 307.85 L302.04 308.87 L302.25 309.89 L302.46 310.90 L302.66 311.92 L302.86 312.94 L303.06 313.96 L303.26 314.98 L303.45 316.00 L303.63 317.01 L303.82 318.03 L304.00 319.05 L304.18 320.07 L304.35 321.08 L304.52 322.10 L304.69 323.12 L304.86 324.13 L305.02 325.15 L305.18 326.17 L305.34 327.18 L305.50 328.20 L305.65 329.21 L305.80 330.23 L305.95 331.25 L306.10 332.26 L306.24 333.28 L306.38 334.29 L306.52 335.31 L306.66 336.32 L306.80 337.34 L306.93 338.35 L307.06 339.37 L307.19 340.38 L307.32 341.40 L307.45 342.41 L307.57 343.43 L307.69 344.44 L307.81 345.45 L307.93 346.47 L308.05 347.48 L308.16 348.50 L308.28 349.51 L308.39 350.52 L308.50 351.54 L308.61 352.55 L308.72 353.56 L308.83 354.58 L308.93 355.59 L309.04 356.60 L309.14 357.62 L309.24 358.63 L309.34 359.64 L309.44 360.65 L309.54 361.67 L309.63 362.68 L309.73 363.69 L309.82 364.70 L309.91 365.72 L310.01 366.73 L310.10 367.74 L310.19 368.75 L310.27 369.77 L310.36 370.78 L310.45 371.79 L310.53 372.80 L310.62 373.81 L310.70 374.83 L310.78 375.84 L310.86 376.85 L310.94 377.86 L311.02 378.87 L311.10 379.88 L311.18 380.89 L311.26 381.91 L311.33 382.92 L311.41 383.93 L311.48 384.94 L311.56 385.95 L311.63 386.96 L311.70 387.97 L311.77 388.98 L311.84 389.99 L311.91 391.00 L311.98 392.01 L312.05 393.02 L312.12 394.04 L312.18 395.05 L312.25 396.06 L312.31 397.07 L312.38 398.08 L312.44 399.09 L312.51 400.10 M337.50 -0.01 L337.50 0.00 L337.56 1.00 L337.63 1.99 L337.69 2.98 L337.75 3.97 L337.82 4.96 L337.88 5.95 L337.95 6.94 L338.02 7.93 L338.08 8.92 L338.15 9.91 L338.22 10.89 L338.29 11.88 L338.36 12.87 L338.43 13.86 L338.50 14.85 L338.58 15.84 L338.65 16.83 L338.72 17.82 L338.80 18.81 L338.87 19.80 L338.95 20.79 L339.03 21.78 L339.11 22.77 L339.18 23.76 L339.26 24.74 L339.35 25.73 L339.43 26.72 L339.51 27.71 L339.59 28.70 L339.68 29.69 L339.76 30.68 L339.85 31.66 L339.94 32.65 L340.03 33.64 L340.12 34.63 L340.21 35.62 L340.30 36.61 L340.39 37.59 L340.49 38.58 L340.58 39.57 L340.68 40.56 L340.78 41.54 L340.88 42.53 L340.98 43.52 L341.08 44.51 L341.18 45.49 L341.28 46.48 L341.39 47.47 L341.50 48.46 L341.61 49.44 L341.71 50.43 L341.83 51.42 L341.94 52.40 L342.05 53.39 L342.17 54.38 L342.28 55.36 L342.40 56.35 L342.52 57.34 L342.65 58.32 L342.77 59.31 L342.89 60.29 L343.02 61.28 L343.15 62.27 L343.28 63.25 L343.41 64.24 L343.55 65.22 L343.69 66.21 L343.82 67.19 L343.97 68.18 L344.11 69.17 L344.25 70.15 L344.40 71.14 L344.55 72.12 L344.70 73.10 L344.86 74.09 L345.01 75.07 L345.17 76.06 L345.33 77.04 L345.50 78.03 L345.66 79.01 L345.83 79.99 L346.00 80.98 L346.18 81.96 L346.36 82.95 L346.54 83.93 L346.72 84.91 L346.91 85.89 L347.10 86.88 L347.29 87.86 L347.49 88.84 L347.69 89.83 L347.90 90.81 L348.10 91.79 L348.31 92.77 L348.53 93.75 L348.75 94.74 L348.97 95.72 L349.20 96.70 L349.43 97.68 L349.67 98.66 L349.91 99.64 L350.16 100.62 L350.41 101.60 L350.66 102.58 L350.92 103.56 L351.19 104.54 L351.46 105.52 L351.74 106.50 L352.02 107.48 L352.31 108.46 L352.61 109.44 L352.91 110.42 L353.22 111.40 L353.53 112.37 L353.85 113.35 L354.18 114.33 L354.52 115.31 L354.86 116.28 L355.22 117.26 L355.58 118.24 L355.95 119.21 L356.32 120.19 L356.71 121.17 L357.11 122.14 L357.52 123.12 L357.93 124.09 L358.36 125.07 L358.80 126.04 L359.25 127.02 L359.72 127.99 L360.19 128.96 L360.68 129.94 L361.18 130.91 L361.70 131.88 L362.23 132.85 L362.78 133.82 L363.34 134.79 L363.92 135.77 L364.52 136.74 L365.13 137.71 L365.77 138.67 L366.42 139.64 L367.10 140.61 L367.79 141.58 L368.51 142.55 L369.26 143.51 L370.03 144.48 L370.83 145.45 L371.65 146.41 L372.51 147.38 L373.39 148.34 L374.31 149.30 L375.27 150.27 L376.26 151.23 L377.29 152.19 L378.36 153.15 L379.48 154.11 L380.64 155.07 L381.85 156.03 L383.12 156.98 L384.44 157.94 L385.82 158.90 L387.27 159.85 L388.78 160.80 L390.37 161.76 L392.04 162.71 L393.79 163.66 L395.64 164.61 L397.58 165.56 L399.58 166.48 L401.58 167.35 L403.58 168.19 L405.58 168.98 L407.58 169.73 L409.58 170.44 L411.58 171.13 L413.58 171.78 L415.58 172.40 L417.58 173.00 L419.58 173.57 L421.58 174.11 L423.58 174.64 L425.58 175.14 L427.58 175.63 L429.58 176.10 L431.58 176.54 L433.58 176.98 L435.58 177.39 L437.58 177.79 L439.58 178.18 L441.58 178.56 L443.58 178.92 L445.58 179.27 L447.58 179.61 L449.58 179.93 L451.58 180.25 L453.58 180.56 L455.58 180.85 L457.58 181.14 L459.58 181.42 L461.58 181.70 L463.58 181.96 L465.58 182.22 L467.58 182.47 L469.58 182.71 L471.58 182.94 L473.58 183.17 L475.58 183.40 L477.58 183.62 L479.58 183.83 L481.58 184.03 L483.58 184.24 L485.58 184.43 L487.58 184.62 L489.58 184.81 L491.58 184.99 L493.58 185.17 L495.58 185.34 L497.58 185.51 L499.58 185.68 L501.58 185.84 L503.58 186.00 L505.58 186.16 L507.58 186.31 L509.58 186.46 L511.58 186.60 L513.58 186.74 L515.58 186.88 L517.58 187.02 L519.58 187.15 L521.58 187.28 L523.58 187.41 L525.58 187.54 L527.58 187.66 L529.58 187.78 L531.58 187.90 L533.58 188.01 L535.58 188.13 L537.58 188.24 L539.58 188.35 L541.58 188.46 L543.58 188.56 L545.58 188.67 L547.58 188.77 L549.58 188.87 L551.58 188.97 L553.58 189.06 L555.58 189.16 L557.58 189.25 L559.58 189.34 L561.58 189.43 L563.58 189.52 L565.58 189.61 L567.58 189.69 L569.58 189.78 L571.58 189.86 L573.58 189.94 L575.58 190.02 L577.58 190.10 L579.58 190.18 L581.58 190.26 L583.58 190.33 L585.58 190.41 L587.58 190.48 L589.58 190.55 L591.58 190.62 L593.58 190.69 L595.58 190.76 L597.58 190.83 L599.58 190.90 L601.58 190.96 L603.58 191.03 L605.58 191.09 L607.58 191.15 L609.58 191.22 L611.58 191.28 L613.58 191.34 L615.58 191.40 L617.58 191.46 L619.58 191.51 L621.58 191.57 L623.58 191.63 L625.58 191.68 L627.58 191.74 L629.58 191.79 L631.58 191.85 L633.58 191.90 L635.58 191.95 L637.58 192.00 L639.58 192.05 L641.58 192.10 L643.58 192.15 L645.58 192.20 L647.58 192.25 L649.58 192.30 " style="fill:none;stroke:#000000;stroke-width:1;" /></g></svg>