<?xml version="1.0" standalone="no"?><!DOCTYPE svg PUBLIC "-//W3C//DTD SVG 1.1//EN" "http://www.w3.org/Graphics/SVG/1.1/DTD/svg11.dtd"><svg xmlns="http://www.w3.org/2000/svg" viewBox="0 0 650 400" version="1.1"><clipPath id="box"><rect x="0" y="0" width="650" height="400" style="fill:none;stroke:none;" /></clipPath><g clip-path="url(#box)"><rect x="0.00" y="0.00" width="650.00" height="400.00" style="fill:#FFFFFF;stroke:none;" /><path d="M0.00 360.00 L650.00 360.00 M0.00 280.00 L650.00 280.00 M0.00 200.00 L650.00 200.00 M0.00 119.00 L650.00 119.00 M0.00 39.00 L650.00 39.00 M4.00 0.00 L4.00 400.00 M84.00 0.00 L84.00 400.00 M164.00 0.00 L164.00 400.00 M244.00 0.00 L244.00 400.00 M325.00 0.00 L325.00 400.00 M405.00 0.00 L405.00 400.00 M485.00 0.00 L485.00 400.00 M565.00 0.00 L565.00 400.00 M645.00 0.00 L645.00 400.00 " style="fill:none;stroke:#D0D0D0;stroke-width:1;" /><path d="M325.00 0.00 L325.00 400.00 " style="fill:none;stroke:#000000;stroke-width:1;" /><path d="M318.50 440.00 L331.50 440.00 M318.50 360.00 L331.50 360.00 M318.50 280.00 L331.50 280.00 M318.50 200.00 L331.50 200.00 M318.50 120.00 L331.50 120.00 M318.50 40.00 L331.50 40.00 " style="fill:none;stroke:#000000;stroke-width:1;" /><path d="M0.00 200.00 L650.00 200.00 " style="fill:none;stroke:#000000;stroke-width:1;" /><path d="M-75.00 193.50 L-75.00 206.50 M5.00 193.50 L5.00 206.50 M85.00 193.50 L85.00 206.50 M165.00 193.50 L165.00 206.50 M245.00 193.50 L245.00 206.50 M325.00 193.50 L325.00 206.50 M405.00 193.50 L405.00 206.50 M485.00 193.50 L485.00 206.50 M565.00 193.50 L565.00 206.50 M645.00 193.50 L645.00 206.50 " style="fill:none;stroke:#000000;stroke-width:1;" /><text x="333.125" y="362.50000000000006" text-anchor="start" style="font:10px Droid Sans,Trebuchet MS,Arial,Helvetica,sans-serif;stroke:none;fill:#000000">-4</text><text x="333.125" y="282.5" text-anchor="start" style="font:10px Droid Sans,Trebuchet MS,Arial,Helvetica,sans-serif;stroke:none;fill:#000000">-2</text><text x="333.125" y="202.5" text-anchor="start" style="font:10px Droid Sans,Trebuchet MS,Arial,Helvetica,sans-serif;stroke:none;fill:#000000">0</text><text x="333.125" y="122.49999999999997" text-anchor="start" style="font:10px Droid Sans,Trebuchet MS,Arial,Helvetica,sans-serif;stroke:none;fill:#000000">2</text><text x="333.125" y="42.49999999999994" text-anchor="start" style="font:10px Droid Sans,Trebuchet MS,Arial,Helvetica,sans-serif;stroke:none;fill:#000000">4</text><text x="84.9999999999999" y="216.125" text-anchor="middle" style="font:10px Droid Sans,Trebuchet MS,Arial,Helvetica,sans-serif;stroke:none;fill:#000000">-6</text><text x="164.99999999999991" y="216.125" text-anchor="middle" style="font:10px Droid Sans,Trebuchet MS,Arial,Helvetica,sans-serif;stroke:none;fill:#000000">-4</text><text x="244.99999999999997" y="216.125" text-anchor="middle" style="font:10px Droid Sans,Trebuchet MS,Arial,Helvetica,sans-serif;stroke:none;fill:#000000">-2</text><text x="325" y="216.125" text-anchor="middle" style="font:10px Droid Sans,Trebuchet MS,Arial,Helvetica,sans-serif;stroke:none;fill:#000000">0</text><text x="405" y="216.125" text-anchor="middle" style="font:10px Droid Sans,Trebuchet MS,Arial,Helvetica,sans-serif;stroke:none;fill:#000000">2</text><text x="485.00000000000006" y="216.125" text-anchor="middle" style="font:10px Droid Sans,Trebuchet MS,Arial,Helvetica,sans-serif;stroke:none;fill:#000000">4</text><text x="565.0000000000001" y="216.125" text-anchor="middle" style="font:10px Droid Sans,Trebuchet MS,Arial,Helvetica,sans-serif;stroke:none;fill:#000000">6</text><path d="M-10.00 200.00 L-0.25 59.45 L0.75 44.81 L0.82 43.71 L0.88 42.70 L0.94 41.68 L1.00 40.67 L1.06 39.66 L1.12 38.65 L1.18 37.64 L1.24 36.62 L1.29 35.61 L1.35 34.60 L1.41 33.59 L1.46 32.58 L1.51 31.57 L1.57 30.55 L1.62 29.54 L1.67 28.53 L1.73 27.52 L1.78 26.51 L1.83 25.50 L1.88 24.49 L1.93 23.48 L1.98 22.46 L2.03 21.45 L2.07 20.44 L2.12 19.43 L2.17 18.42 L2.21 17.41 L2.26 16.40 L2.31 15.39 L2.35 14.38 L2.40 13.37 L2.44 12.36 L2.48 11.35 L2.53 10.34 L2.57 9.33 L2.61 8.32 L2.65 7.31 L2.70 6.30 L2.74 5.29 L2.78 4.28 L2.82 3.27 L2.86 2.26 L2.90 1.25 L2.94 0.24 L2.97 -0.77 M18.74 400.00 L18.74 399.98 L18.78 398.98 L18.81 397.99 L18.85 397.00 L18.89 396.01 L18.93 395.02 L18.97 394.03 L19.01 393.04 L19.05 392.05 L19.10 391.06 L19.14 390.07 L19.18 389.08 L19.22 388.09 L19.27 387.10 L19.31 386.11 L19.35 385.12 L19.40 384.13 L19.44 383.14 L19.49 382.15 L19.53 381.16 L19.58 380.17 L19.63 379.18 L19.67 378.19 L19.72 377.20 L19.77 376.21 L19.82 375.22 L19.87 374.23 L19.92 373.24 L19.97 372.25 L20.02 371.26 L20.07 370.28 L20.12 369.29 L20.17 368.30 L20.23 367.31 L20.28 366.32 L20.34 365.33 L20.39 364.34 L20.45 363.35 L20.50 362.36 L20.56 361.38 L20.62 360.39 L20.68 359.40 L20.73 358.41 L20.79 357.42 L20.85 356.43 L20.92 355.45 L20.98 354.46 L21.04 353.47 L21.10 352.48 L21.17 351.49 L21.23 350.51 L21.30 349.52 L21.36 348.53 L21.43 347.54 L21.50 346.56 L21.57 345.57 L21.64 344.58 L21.71 343.59 L21.78 342.61 L21.85 341.62 L21.93 340.63 L22.00 339.64 L22.08 338.66 L22.15 337.67 L22.23 336.68 L22.31 335.70 L22.39 334.71 L22.47 333.72 L22.55 332.74 L22.63 331.75 L22.72 330.76 L22.80 329.78 L22.89 328.79 L22.97 327.80 L23.06 326.82 L23.15 325.83 L23.24 324.85 L23.34 323.86 L23.43 322.88 L23.52 321.89 L23.62 320.90 L23.72 319.92 L23.82 318.93 L23.92 317.95 L24.02 316.96 L24.13 315.98 L24.23 314.99 L24.34 314.01 L24.45 313.02 L24.56 312.04 L24.67 311.05 L24.78 310.07 L24.90 309.09 L25.02 308.10 L25.14 307.12 L25.26 306.13 L25.38 305.15 L25.51 304.17 L25.63 303.18 L25.76 302.20 L25.90 301.22 L26.03 300.23 L26.17 299.25 L26.30 298.27 L26.44 297.28 L26.59 296.30 L26.73 295.32 L26.88 294.33 L27.03 293.35 L27.19 292.37 L27.34 291.39 L27.50 290.41 L27.67 289.42 L27.83 288.44 L28.00 287.46 L28.17 286.48 L28.34 285.50 L28.52 284.51 L28.70 283.53 L28.89 282.55 L29.08 281.57 L29.27 280.59 L29.46 279.61 L29.66 278.63 L29.87 277.65 L30.08 276.67 L30.29 275.69 L30.50 274.71 L30.72 273.73 L30.95 272.75 L31.18 271.77 L31.41 270.79 L31.65 269.81 L31.90 268.83 L32.15 267.85 L32.40 266.87 L32.66 265.90 L32.93 264.92 L33.20 263.94 L33.48 262.96 L33.76 261.98 L34.06 261.00 L34.35 260.03 L34.66 259.05 L34.97 258.07 L35.29 257.09 L35.61 256.12 L35.94 255.14 L36.29 254.16 L36.63 253.19 L36.99 252.21 L37.36 251.23 L37.73 250.26 L38.11 249.28 L38.51 248.30 L38.91 247.33 L39.32 246.35 L39.74 245.37 L40.17 244.40 L40.62 243.42 L41.07 242.45 L41.53 241.47 L42.01 240.49 L42.50 239.52 L43.00 238.54 L43.51 237.57 L44.04 236.59 L44.57 235.61 L45.13 234.64 L45.69 233.66 L46.27 232.69 L46.86 231.71 L47.47 230.73 L48.09 229.76 L48.73 228.78 L49.38 227.80 L50.04 226.83 L50.73 225.85 L51.42 224.87 L52.14 223.89 L52.87 222.91 L53.61 221.93 L54.37 220.95 L55.15 219.97 L55.94 218.99 L56.75 218.01 L57.57 217.03 L58.41 216.05 L59.27 215.06 L60.13 214.08 L61.02 213.10 L61.91 212.11 L62.82 211.12 L63.75 210.14 L64.68 209.15 L65.62 208.16 L66.58 207.17 L67.54 206.18 L68.52 205.18 L69.50 204.19 L70.48 203.20 L71.47 202.20 L72.47 201.20 L73.47 200.20 L74.47 199.20 L75.47 198.20 L76.47 197.20 L77.46 196.20 L78.46 195.19 L79.45 194.19 L80.43 193.18 L81.40 192.17 L82.37 191.16 L83.33 190.15 L84.28 189.14 L85.21 188.13 L86.14 187.11 L87.05 186.10 L87.95 185.08 L88.84 184.07 L89.71 183.05 L90.56 182.03 L91.40 181.01 L92.23 179.99 L93.03 178.97 L93.83 177.95 L94.60 176.93 L95.36 175.90 L96.10 174.88 L96.83 173.86 L97.54 172.83 L98.23 171.81 L98.91 170.79 L99.57 169.76 L100.21 168.74 L100.84 167.71 L101.45 166.69 L102.05 165.66 L102.63 164.63 L103.20 163.61 L103.75 162.58 L104.29 161.56 L104.82 160.53 L105.33 159.50 L105.83 158.48 L106.32 157.45 L106.80 156.43 L107.26 155.40 L107.71 154.37 L108.15 153.35 L108.58 152.32 L109.00 151.30 L109.41 150.27 L109.81 149.25 L110.19 148.22 L110.57 147.20 L110.94 146.17 L111.30 145.15 L111.65 144.12 L112.00 143.10 L112.33 142.07 L112.66 141.05 L112.98 140.03 L113.29 139.00 L113.59 137.98 L113.89 136.95 L114.18 135.93 L114.46 134.91 L114.74 133.88 L115.01 132.86 L115.28 131.84 L115.54 130.82 L115.79 129.79 L116.04 128.77 L116.28 127.75 L116.52 126.73 L116.75 125.71 L116.98 124.68 L117.20 123.66 L117.42 122.64 L117.63 121.62 L117.84 120.60 L118.04 119.58 L118.24 118.56 L118.44 117.54 L118.63 116.52 L118.82 115.50 L119.00 114.48 L119.19 113.46 L119.36 112.44 L119.54 111.42 L119.71 110.40 L119.88 109.38 L120.04 108.36 L120.20 107.34 L120.36 106.32 L120.52 105.31 L120.67 104.29 L120.82 103.27 L120.97 102.25 L121.11 101.23 L121.25 100.21 L121.39 99.20 L121.53 98.18 L121.67 97.16 L121.80 96.14 L121.93 95.13 L122.06 94.11 L122.18 93.09 L122.31 92.08 L122.43 91.06 L122.55 90.04 L122.67 89.03 L122.78 88.01 L122.90 86.99 L123.01 85.98 L123.12 84.96 L123.23 83.95 L123.33 82.93 L123.44 81.91 L123.54 80.90 L123.65 79.88 L123.75 78.87 L123.85 77.85 L123.94 76.84 L124.04 75.82 L124.13 74.81 L124.23 73.79 L124.32 72.78 L124.41 71.76 L124.50 70.75 L124.59 69.73 L124.67 68.72 L124.76 67.71 L124.84 66.69 L124.93 65.68 L125.01 64.66 L125.09 63.65 L125.17 62.64 L125.25 61.62 L125.33 60.61 L125.40 59.60 L125.48 58.58 L125.55 57.57 L125.63 56.56 L125.70 55.54 L125.77 54.53 L125.84 53.52 L125.91 52.50 L125.98 51.49 L126.05 50.48 L126.12 49.46 L126.18 48.45 L126.25 47.44 L126.31 46.43 L126.38 45.41 L126.44 44.40 L126.50 43.39 L126.56 42.38 L126.62 41.37 L126.68 40.35 L126.74 39.34 L126.80 38.33 L126.86 37.32 L126.92 36.31 L126.97 35.29 L127.03 34.28 L127.09 33.27 L127.14 32.26 L127.19 31.25 L127.25 30.24 L127.30 29.23 L127.35 28.21 L127.41 27.20 L127.46 26.19 L127.51 25.18 L127.56 24.17 L127.61 23.16 L127.66 22.15 L127.70 21.14 L127.75 20.13 L127.80 19.11 L127.85 18.10 L127.89 17.09 L127.94 16.08 L127.98 15.07 L128.03 14.06 L128.07 13.05 L128.12 12.04 L128.16 11.03 L128.20 10.02 L128.25 9.01 L128.29 8.00 L128.33 6.99 L128.37 5.98 L128.41 4.97 L128.45 3.96 L128.49 2.95 L128.53 1.94 L128.57 0.93 L128.61 -0.08 M144.40 400.02 L144.40 399.99 L144.44 398.99 L144.48 398.00 L144.52 397.01 L144.56 396.02 L144.60 395.03 L144.64 394.04 L144.68 393.05 L144.72 392.06 L144.76 391.07 L144.80 390.08 L144.84 389.09 L144.89 388.10 L144.93 387.11 L144.97 386.12 L145.02 385.13 L145.06 384.14 L145.11 383.15 L145.15 382.16 L145.20 381.17 L145.24 380.18 L145.29 379.19 L145.34 378.20 L145.38 377.21 L145.43 376.22 L145.48 375.24 L145.53 374.25 L145.58 373.26 L145.63 372.27 L145.68 371.28 L145.73 370.29 L145.78 369.30 L145.84 368.31 L145.89 367.32 L145.94 366.33 L146.00 365.34 L146.05 364.36 L146.11 363.37 L146.17 362.38 L146.22 361.39 L146.28 360.40 L146.34 359.41 L146.40 358.42 L146.46 357.44 L146.52 356.45 L146.58 355.46 L146.64 354.47 L146.70 353.48 L146.77 352.50 L146.83 351.51 L146.89 350.52 L146.96 349.53 L147.03 348.54 L147.09 347.56 L147.16 346.57 L147.23 345.58 L147.30 344.59 L147.37 343.61 L147.44 342.62 L147.51 341.63 L147.59 340.64 L147.66 339.66 L147.74 338.67 L147.81 337.68 L147.89 336.70 L147.97 335.71 L148.05 334.72 L148.13 333.74 L148.21 332.75 L148.29 331.76 L148.38 330.78 L148.46 329.79 L148.55 328.80 L148.64 327.82 L148.72 326.83 L148.81 325.85 L148.91 324.86 L149.00 323.87 L149.09 322.89 L149.19 321.90 L149.28 320.92 L149.38 319.93 L149.48 318.95 L149.58 317.96 L149.68 316.98 L149.79 315.99 L149.89 315.01 L150.00 314.02 L150.11 313.04 L150.22 312.05 L150.33 311.07 L150.45 310.08 L150.56 309.10 L150.68 308.12 L150.80 307.13 L150.92 306.15 L151.04 305.16 L151.17 304.18 L151.30 303.20 L151.43 302.21 L151.56 301.23 L151.69 300.25 L151.83 299.26 L151.97 298.28 L152.11 297.30 L152.25 296.31 L152.40 295.33 L152.54 294.35 L152.70 293.37 L152.85 292.38 L153.01 291.40 L153.16 290.42 L153.33 289.44 L153.49 288.45 L153.66 287.47 L153.83 286.49 L154.01 285.51 L154.18 284.53 L154.37 283.55 L154.55 282.57 L154.74 281.59 L154.93 280.60 L155.13 279.62 L155.33 278.64 L155.53 277.66 L155.74 276.68 L155.95 275.70 L156.16 274.72 L156.38 273.74 L156.61 272.76 L156.84 271.78 L157.07 270.80 L157.31 269.82 L157.56 268.85 L157.81 267.87 L158.06 266.89 L158.32 265.91 L158.59 264.93 L158.86 263.95 L159.14 262.97 L159.42 262.00 L159.71 261.02 L160.01 260.04 L160.32 259.06 L160.63 258.09 L160.95 257.11 L161.27 256.13 L161.60 255.15 L161.94 254.18 L162.29 253.20 L162.65 252.22 L163.02 251.25 L163.39 250.27 L163.77 249.29 L164.16 248.32 L164.57 247.34 L164.98 246.36 L165.40 245.39 L165.83 244.41 L166.27 243.44 L166.73 242.46 L167.19 241.48 L167.67 240.51 L168.16 239.53 L168.66 238.56 L169.17 237.58 L169.69 236.60 L170.23 235.63 L170.78 234.65 L171.35 233.68 L171.92 232.70 L172.52 231.72 L173.12 230.75 L173.74 229.77 L174.38 228.79 L175.03 227.82 L175.70 226.84 L176.38 225.86 L177.08 224.88 L177.79 223.90 L178.52 222.93 L179.26 221.95 L180.02 220.97 L180.80 219.99 L181.59 219.01 L182.40 218.03 L183.22 217.04 L184.06 216.06 L184.92 215.08 L185.79 214.09 L186.67 213.11 L187.56 212.12 L188.47 211.14 L189.40 210.15 L190.33 209.16 L191.27 208.17 L192.23 207.18 L193.19 206.19 L194.17 205.20 L195.15 204.20 L196.13 203.21 L197.12 202.21 L198.12 201.22 L199.12 200.22 L200.12 199.22 L201.12 198.22 L202.12 197.22 L203.11 196.21 L204.11 195.21 L205.10 194.20 L206.08 193.19 L207.05 192.19 L208.02 191.18 L208.98 190.17 L209.93 189.15 L210.87 188.14 L211.79 187.13 L212.70 186.11 L213.60 185.10 L214.49 184.08 L215.36 183.06 L216.21 182.04 L217.05 181.02 L217.88 180.00 L218.69 178.98 L219.48 177.96 L220.25 176.94 L221.01 175.92 L221.76 174.90 L222.48 173.87 L223.19 172.85 L223.88 171.82 L224.56 170.80 L225.22 169.77 L225.86 168.75 L226.49 167.72 L227.11 166.70 L227.70 165.67 L228.29 164.65 L228.86 163.62 L229.41 162.60 L229.95 161.57 L230.48 160.54 L230.99 159.52 L231.49 158.49 L231.98 157.47 L232.45 156.44 L232.92 155.41 L233.37 154.39 L233.81 153.36 L234.24 152.34 L234.66 151.31 L235.07 150.29 L235.46 149.26 L235.85 148.24 L236.23 147.21 L236.60 146.19 L236.96 145.16 L237.31 144.14 L237.66 143.11 L237.99 142.09 L238.32 141.06 L238.64 140.04 L238.95 139.02 L239.25 137.99 L239.55 136.97 L239.84 135.94 L240.12 134.92 L240.40 133.90 L240.67 132.88 L240.94 131.85 L241.20 130.83 L241.45 129.81 L241.70 128.79 L241.94 127.76 L242.18 126.74 L242.41 125.72 L242.64 124.70 L242.86 123.68 L243.08 122.66 L243.29 121.63 L243.50 120.61 L243.70 119.59 L243.90 118.57 L244.10 117.55 L244.29 116.53 L244.48 115.51 L244.67 114.49 L244.85 113.47 L245.03 112.45 L245.20 111.43 L245.37 110.41 L245.54 109.39 L245.70 108.38 L245.86 107.36 L246.02 106.34 L246.18 105.32 L246.33 104.30 L246.48 103.28 L246.63 102.26 L246.77 101.25 L246.92 100.23 L247.06 99.21 L247.19 98.19 L247.33 97.18 L247.46 96.16 L247.59 95.14 L247.72 94.12 L247.85 93.11 L247.97 92.09 L248.09 91.07 L248.21 90.06 L248.33 89.04 L248.44 88.02 L248.56 87.01 L248.67 85.99 L248.78 84.98 L248.89 83.96 L249.00 82.94 L249.10 81.93 L249.21 80.91 L249.31 79.90 L249.41 78.88 L249.51 77.87 L249.61 76.85 L249.70 75.84 L249.80 74.82 L249.89 73.81 L249.98 72.79 L250.07 71.78 L250.16 70.76 L250.25 69.75 L250.34 68.73 L250.42 67.72 L250.51 66.71 L250.59 65.69 L250.67 64.68 L250.75 63.66 L250.83 62.65 L250.91 61.64 L250.99 60.62 L251.07 59.61 L251.14 58.60 L251.22 57.58 L251.29 56.57 L251.36 55.56 L251.43 54.54 L251.50 53.53 L251.57 52.52 L251.64 51.50 L251.71 50.49 L251.78 49.48 L251.84 48.47 L251.91 47.45 L251.98 46.44 L252.04 45.43 L252.10 44.42 L252.16 43.40 L252.23 42.39 L252.29 41.38 L252.35 40.37 L252.41 39.36 L252.47 38.34 L252.52 37.33 L252.58 36.32 L252.64 35.31 L252.69 34.30 L252.75 33.28 L252.80 32.27 L252.86 31.26 L252.91 30.25 L252.96 29.24 L253.02 28.23 L253.07 27.22 L253.12 26.21 L253.17 25.19 L253.22 24.18 L253.27 23.17 L253.32 22.16 L253.37 21.15 L253.41 20.14 L253.46 19.13 L253.51 18.12 L253.56 17.11 L253.60 16.10 L253.65 15.09 L253.69 14.08 L253.74 13.07 L253.78 12.06 L253.82 11.04 L253.87 10.03 L253.91 9.02 L253.95 8.01 L253.99 7.00 L254.03 5.99 L254.08 4.98 L254.12 3.97 L254.16 2.96 L254.20 1.95 L254.24 0.94 L254.27 -0.07 M270.06 400.00 L270.06 399.98 L270.10 398.98 L270.14 397.99 L270.18 397.00 L270.22 396.01 L270.26 395.02 L270.30 394.03 L270.34 393.04 L270.38 392.05 L270.42 391.06 L270.47 390.07 L270.51 389.08 L270.55 388.09 L270.59 387.10 L270.64 386.11 L270.68 385.12 L270.72 384.13 L270.77 383.14 L270.81 382.15 L270.86 381.16 L270.91 380.17 L270.95 379.18 L271.00 378.19 L271.05 377.20 L271.10 376.21 L271.15 375.22 L271.19 374.23 L271.24 373.24 L271.29 372.26 L271.35 371.27 L271.40 370.28 L271.45 369.29 L271.50 368.30 L271.56 367.31 L271.61 366.32 L271.66 365.33 L271.72 364.34 L271.77 363.36 L271.83 362.37 L271.89 361.38 L271.94 360.39 L272.00 359.40 L272.06 358.41 L272.12 357.42 L272.18 356.44 L272.24 355.45 L272.30 354.46 L272.37 353.47 L272.43 352.48 L272.49 351.50 L272.56 350.51 L272.62 349.52 L272.69 348.53 L272.76 347.54 L272.83 346.56 L272.89 345.57 L272.96 344.58 L273.04 343.59 L273.11 342.61 L273.18 341.62 L273.25 340.63 L273.33 339.65 L273.40 338.66 L273.48 337.67 L273.56 336.68 L273.63 335.70 L273.71 334.71 L273.79 333.72 L273.88 332.74 L273.96 331.75 L274.04 330.77 L274.13 329.78 L274.21 328.79 L274.30 327.81 L274.39 326.82 L274.48 325.83 L274.57 324.85 L274.66 323.86 L274.76 322.88 L274.85 321.89 L274.95 320.91 L275.05 319.92 L275.15 318.94 L275.25 317.95 L275.35 316.96 L275.45 315.98 L275.56 314.99 L275.67 314.01 L275.77 313.03 L275.88 312.04 L276.00 311.06 L276.11 310.07 L276.23 309.09 L276.34 308.10 L276.46 307.12 L276.58 306.14 L276.71 305.15 L276.83 304.17 L276.96 303.18 L277.09 302.20 L277.22 301.22 L277.36 300.23 L277.49 299.25 L277.63 298.27 L277.77 297.28 L277.92 296.30 L278.06 295.32 L278.21 294.34 L278.36 293.35 L278.51 292.37 L278.67 291.39 L278.83 290.41 L278.99 289.42 L279.16 288.44 L279.33 287.46 L279.50 286.48 L279.67 285.50 L279.85 284.52 L280.03 283.54 L280.22 282.55 L280.40 281.57 L280.60 280.59 L280.79 279.61 L280.99 278.63 L281.20 277.65 L281.40 276.67 L281.61 275.69 L281.83 274.71 L282.05 273.73 L282.28 272.75 L282.51 271.77 L282.74 270.79 L282.98 269.81 L283.22 268.83 L283.47 267.86 L283.73 266.88 L283.99 265.90 L284.26 264.92 L284.53 263.94 L284.81 262.96 L285.09 261.98 L285.38 261.01 L285.68 260.03 L285.98 259.05 L286.29 258.07 L286.61 257.10 L286.94 256.12 L287.27 255.14 L287.61 254.16 L287.96 253.19 L288.32 252.21 L288.68 251.23 L289.06 250.26 L289.44 249.28 L289.83 248.30 L290.24 247.33 L290.65 246.35 L291.07 245.38 L291.50 244.40 L291.94 243.42 L292.40 242.45 L292.86 241.47 L293.34 240.50 L293.83 239.52 L294.33 238.54 L294.84 237.57 L295.36 236.59 L295.90 235.62 L296.45 234.64 L297.02 233.66 L297.59 232.69 L298.19 231.71 L298.79 230.73 L299.42 229.76 L300.05 228.78 L300.70 227.80 L301.37 226.83 L302.05 225.85 L302.75 224.87 L303.46 223.89 L304.19 222.91 L304.94 221.94 L305.70 220.96 L306.47 219.98 L307.27 218.99 L308.07 218.01 L308.90 217.03 L309.74 216.05 L310.59 215.07 L311.46 214.08 L312.34 213.10 L313.24 212.11 L314.15 211.13 L315.07 210.14 L316.00 209.15 L316.95 208.16 L317.91 207.17 L318.87 206.18 L319.84 205.19 L320.82 204.19 L321.81 203.20 L322.80 202.20 L323.80 201.20 L324.79 200.21 L325.79 199.21 L326.79 198.21 L327.79 197.20 L328.79 196.20 L329.78 195.19 L330.77 194.19 L331.75 193.18 L332.73 192.17 L333.70 191.16 L334.66 190.15 L335.60 189.14 L336.54 188.13 L337.47 187.11 L338.38 186.10 L339.28 185.08 L340.16 184.07 L341.03 183.05 L341.89 182.03 L342.73 181.01 L343.55 179.99 L344.36 178.97 L345.15 177.95 L345.93 176.93 L346.69 175.91 L347.43 174.88 L348.15 173.86 L348.86 172.84 L349.56 171.81 L350.23 170.79 L350.89 169.76 L351.54 168.74 L352.16 167.71 L352.78 166.69 L353.38 165.66 L353.96 164.64 L354.53 163.61 L355.08 162.58 L355.62 161.56 L356.15 160.53 L356.66 159.51 L357.16 158.48 L357.65 157.45 L358.12 156.43 L358.59 155.40 L359.04 154.38 L359.48 153.35 L359.91 152.33 L360.33 151.30 L360.73 150.27 L361.13 149.25 L361.52 148.22 L361.90 147.20 L362.27 146.17 L362.63 145.15 L362.98 144.12 L363.32 143.10 L363.66 142.08 L363.98 141.05 L364.30 140.03 L364.62 139.00 L364.92 137.98 L365.22 136.96 L365.51 135.93 L365.79 134.91 L366.07 133.89 L366.34 132.86 L366.60 131.84 L366.86 130.82 L367.12 129.80 L367.36 128.77 L367.61 127.75 L367.84 126.73 L368.08 125.71 L368.30 124.69 L368.53 123.66 L368.74 122.64 L368.96 121.62 L369.16 120.60 L369.37 119.58 L369.57 118.56 L369.77 117.54 L369.96 116.52 L370.15 115.50 L370.33 114.48 L370.51 113.46 L370.69 112.44 L370.87 111.42 L371.04 110.40 L371.20 109.38 L371.37 108.36 L371.53 107.34 L371.69 106.33 L371.84 105.31 L372.00 104.29 L372.15 103.27 L372.29 102.25 L372.44 101.23 L372.58 100.22 L372.72 99.20 L372.86 98.18 L372.99 97.16 L373.13 96.15 L373.26 95.13 L373.38 94.11 L373.51 93.09 L373.63 92.08 L373.76 91.06 L373.88 90.04 L373.99 89.03 L374.11 88.01 L374.22 87.00 L374.34 85.98 L374.45 84.96 L374.56 83.95 L374.66 82.93 L374.77 81.92 L374.87 80.90 L374.97 79.89 L375.07 78.87 L375.17 77.85 L375.27 76.84 L375.37 75.82 L375.46 74.81 L375.55 73.79 L375.65 72.78 L375.74 71.77 L375.83 70.75 L375.91 69.74 L376.00 68.72 L376.09 67.71 L376.17 66.69 L376.25 65.68 L376.34 64.67 L376.42 63.65 L376.50 62.64 L376.58 61.62 L376.65 60.61 L376.73 59.60 L376.81 58.58 L376.88 57.57 L376.95 56.56 L377.03 55.54 L377.10 54.53 L377.17 53.52 L377.24 52.50 L377.31 51.49 L377.38 50.48 L377.44 49.47 L377.51 48.45 L377.57 47.44 L377.64 46.43 L377.70 45.42 L377.77 44.40 L377.83 43.39 L377.89 42.38 L377.95 41.37 L378.01 40.36 L378.07 39.34 L378.13 38.33 L378.19 37.32 L378.25 36.31 L378.30 35.30 L378.36 34.28 L378.41 33.27 L378.47 32.26 L378.52 31.25 L378.58 30.24 L378.63 29.23 L378.68 28.22 L378.73 27.20 L378.78 26.19 L378.83 25.18 L378.88 24.17 L378.93 23.16 L378.98 22.15 L379.03 21.14 L379.08 20.13 L379.13 19.12 L379.17 18.11 L379.22 17.10 L379.27 16.08 L379.31 15.07 L379.36 14.06 L379.40 13.05 L379.44 12.04 L379.49 11.03 L379.53 10.02 L379.57 9.01 L379.62 8.00 L379.66 6.99 L379.70 5.98 L379.74 4.97 L379.78 3.96 L379.82 2.95 L379.86 1.94 L379.90 0.93 L379.94 -0.08 M395.73 400.02 L395.73 399.99 L395.77 399.00 L395.81 398.01 L395.84 397.01 L395.88 396.02 L395.92 395.03 L395.96 394.04 L396.00 393.05 L396.05 392.06 L396.09 391.07 L396.13 390.08 L396.17 389.09 L396.21 388.10 L396.26 387.11 L396.30 386.12 L396.34 385.13 L396.39 384.14 L396.43 383.15 L396.48 382.16 L396.52 381.17 L396.57 380.18 L396.62 379.19 L396.66 378.21 L396.71 377.22 L396.76 376.23 L396.81 375.24 L396.86 374.25 L396.91 373.26 L396.96 372.27 L397.01 371.28 L397.06 370.29 L397.11 369.30 L397.16 368.31 L397.22 367.32 L397.27 366.34 L397.33 365.35 L397.38 364.36 L397.44 363.37 L397.49 362.38 L397.55 361.39 L397.61 360.40 L397.67 359.41 L397.72 358.43 L397.78 357.44 L397.84 356.45 L397.91 355.46 L397.97 354.47 L398.03 353.49 L398.09 352.50 L398.16 351.51 L398.22 350.52 L398.29 349.53 L398.35 348.55 L398.42 347.56 L398.49 346.57 L398.56 345.58 L398.63 344.60 L398.70 343.61 L398.77 342.62 L398.84 341.63 L398.92 340.65 L398.99 339.66 L399.06 338.67 L399.14 337.69 L399.22 336.70 L399.30 335.71 L399.38 334.72 L399.46 333.74 L399.54 332.75 L399.62 331.77 L399.70 330.78 L399.79 329.79 L399.88 328.81 L399.96 327.82 L400.05 326.83 L400.14 325.85 L400.23 324.86 L400.33 323.88 L400.42 322.89 L400.51 321.91 L400.61 320.92 L400.71 319.93 L400.81 318.95 L400.91 317.96 L401.01 316.98 L401.11 315.99 L401.22 315.01 L401.33 314.02 L401.44 313.04 L401.55 312.05 L401.66 311.07 L401.77 310.09 L401.89 309.10 L402.01 308.12 L402.13 307.13 L402.25 306.15 L402.37 305.16 L402.50 304.18 L402.62 303.20 L402.75 302.21 L402.88 301.23 L403.02 300.25 L403.15 299.26 L403.29 298.28 L403.43 297.30 L403.58 296.31 L403.72 295.33 L403.87 294.35 L404.02 293.37 L404.18 292.38 L404.33 291.40 L404.49 290.42 L404.65 289.44 L404.82 288.46 L404.99 287.47 L405.16 286.49 L405.33 285.51 L405.51 284.53 L405.69 283.55 L405.88 282.57 L406.07 281.59 L406.26 280.61 L406.45 279.63 L406.65 278.65 L406.86 277.66 L407.06 276.68 L407.28 275.70 L407.49 274.72 L407.71 273.74 L407.94 272.76 L408.17 271.79 L408.40 270.81 L408.64 269.83 L408.88 268.85 L409.13 267.87 L409.39 266.89 L409.65 265.91 L409.92 264.93 L410.19 263.95 L410.47 262.98 L410.75 262.00 L411.04 261.02 L411.34 260.04 L411.64 259.06 L411.95 258.09 L412.27 257.11 L412.60 256.13 L412.93 255.15 L413.27 254.18 L413.62 253.20 L413.98 252.22 L414.34 251.25 L414.72 250.27 L415.10 249.29 L415.49 248.32 L415.89 247.34 L416.30 246.37 L416.73 245.39 L417.16 244.41 L417.60 243.44 L418.05 242.46 L418.52 241.49 L418.99 240.51 L419.48 239.53 L419.98 238.56 L420.49 237.58 L421.02 236.61 L421.56 235.63 L422.11 234.65 L422.67 233.68 L423.25 232.70 L423.84 231.72 L424.45 230.75 L425.07 229.77 L425.71 228.79 L426.36 227.82 L427.02 226.84 L427.71 225.86 L428.40 224.88 L429.12 223.91 L429.84 222.93 L430.59 221.95 L431.35 220.97 L432.13 219.99 L432.92 219.01 L433.73 218.03 L434.55 217.05 L435.39 216.06 L436.24 215.08 L437.11 214.10 L437.99 213.11 L438.89 212.13 L439.80 211.14 L440.72 210.15 L441.66 209.16 L442.60 208.17 L443.56 207.18 L444.52 206.19 L445.49 205.20 L446.47 204.21 L447.46 203.21 L448.45 202.22 L449.45 201.22 L450.44 200.22 L451.44 199.22 L452.44 198.22 L453.44 197.22 L454.44 196.21 L455.43 195.21 L456.42 194.20 L457.40 193.20 L458.38 192.19 L459.35 191.18 L460.31 190.17 L461.25 189.16 L462.19 188.14 L463.12 187.13 L464.03 186.11 L464.93 185.10 L465.81 184.08 L466.68 183.06 L467.54 182.04 L468.38 181.03 L469.21 180.01 L470.01 178.99 L470.81 177.96 L471.58 176.94 L472.34 175.92 L473.08 174.90 L473.81 173.87 L474.52 172.85 L475.21 171.83 L475.89 170.80 L476.55 169.78 L477.19 168.75 L477.82 167.73 L478.43 166.70 L479.03 165.68 L479.61 164.65 L480.18 163.62 L480.74 162.60 L481.28 161.57 L481.80 160.55 L482.32 159.52 L482.82 158.49 L483.31 157.47 L483.78 156.44 L484.24 155.42 L484.70 154.39 L485.14 153.37 L485.57 152.34 L485.98 151.31 L486.39 150.29 L486.79 149.26 L487.18 148.24 L487.56 147.21 L487.93 146.19 L488.29 145.16 L488.64 144.14 L488.98 143.11 L489.32 142.09 L489.64 141.07 L489.96 140.04 L490.27 139.02 L490.58 137.99 L490.88 136.97 L491.17 135.95 L491.45 134.92 L491.73 133.90 L492.00 132.88 L492.26 131.85 L492.52 130.83 L492.78 129.81 L493.02 128.79 L493.27 127.77 L493.50 126.74 L493.74 125.72 L493.96 124.70 L494.19 123.68 L494.40 122.66 L494.62 121.64 L494.83 120.62 L495.03 119.59 L495.23 118.57 L495.43 117.55 L495.62 116.53 L495.81 115.51 L495.99 114.49 L496.17 113.47 L496.35 112.45 L496.53 111.43 L496.70 110.42 L496.87 109.40 L497.03 108.38 L497.19 107.36 L497.35 106.34 L497.51 105.32 L497.66 104.30 L497.81 103.28 L497.96 102.27 L498.10 101.25 L498.24 100.23 L498.38 99.21 L498.52 98.19 L498.66 97.18 L498.79 96.16 L498.92 95.14 L499.05 94.13 L499.17 93.11 L499.30 92.09 L499.42 91.08 L499.54 90.06 L499.66 89.04 L499.77 88.03 L499.89 87.01 L500.00 85.99 L500.11 84.98 L500.22 83.96 L500.32 82.95 L500.43 81.93 L500.53 80.91 L500.64 79.90 L500.74 78.88 L500.84 77.87 L500.93 76.85 L501.03 75.84 L501.12 74.82 L501.22 73.81 L501.31 72.79 L501.40 71.78 L501.49 70.76 L501.58 69.75 L501.66 68.74 L501.75 67.72 L501.83 66.71 L501.92 65.69 L502.00 64.68 L502.08 63.67 L502.16 62.65 L502.24 61.64 L502.32 60.62 L502.39 59.61 L502.47 58.60 L502.54 57.58 L502.62 56.57 L502.69 55.56 L502.76 54.54 L502.83 53.53 L502.90 52.52 L502.97 51.51 L503.04 50.49 L503.11 49.48 L503.17 48.47 L503.24 47.46 L503.30 46.44 L503.37 45.43 L503.43 44.42 L503.49 43.41 L503.55 42.39 L503.61 41.38 L503.67 40.37 L503.73 39.36 L503.79 38.35 L503.85 37.33 L503.91 36.32 L503.96 35.31 L504.02 34.30 L504.08 33.29 L504.13 32.28 L504.19 31.26 L504.24 30.25 L504.29 29.24 L504.34 28.23 L504.40 27.22 L504.45 26.21 L504.50 25.20 L504.55 24.19 L504.60 23.17 L504.65 22.16 L504.69 21.15 L504.74 20.14 L504.79 19.13 L504.84 18.12 L504.88 17.11 L504.93 16.10 L504.97 15.09 L505.02 14.08 L505.06 13.07 L505.11 12.06 L505.15 11.05 L505.19 10.04 L505.24 9.03 L505.28 8.02 L505.32 7.01 L505.36 6.00 L505.40 4.99 L505.44 3.98 L505.48 2.97 L505.52 1.96 L505.56 0.95 L505.60 -0.06 M521.39 400.00 L521.39 399.98 L521.43 398.98 L521.47 397.99 L521.51 397.00 L521.55 396.01 L521.59 395.02 L521.63 394.03 L521.67 393.04 L521.71 392.05 L521.75 391.06 L521.79 390.07 L521.83 389.08 L521.88 388.09 L521.92 387.10 L521.96 386.11 L522.01 385.12 L522.05 384.13 L522.10 383.14 L522.14 382.15 L522.19 381.16 L522.23 380.17 L522.28 379.18 L522.33 378.19 L522.38 377.20 L522.42 376.21 L522.47 375.23 L522.52 374.24 L522.57 373.25 L522.62 372.26 L522.67 371.27 L522.72 370.28 L522.78 369.29 L522.83 368.30 L522.88 367.31 L522.94 366.32 L522.99 365.33 L523.05 364.35 L523.10 363.36 L523.16 362.37 L523.21 361.38 L523.27 360.39 L523.33 359.40 L523.39 358.41 L523.45 357.43 L523.51 356.44 L523.57 355.45 L523.63 354.46 L523.69 353.47 L523.76 352.49 L523.82 351.50 L523.89 350.51 L523.95 349.52 L524.02 348.53 L524.09 347.55 L524.15 346.56 L524.22 345.57 L524.29 344.58 L524.36 343.60 L524.43 342.61 L524.51 341.62 L524.58 340.63 L524.65 339.65 L524.73 338.66 L524.81 337.67 L524.88 336.69 L524.96 335.70 L525.04 334.71 L525.12 333.73 L525.20 332.74 L525.29 331.75 L525.37 330.77 L525.45 329.78 L525.54 328.79 L525.63 327.81 L525.72 326.82 L525.81 325.84 L525.90 324.85 L525.99 323.86 L526.08 322.88 L526.18 321.89 L526.28 320.91 L526.37 319.92 L526.47 318.94 L526.57 317.95 L526.68 316.97 L526.78 315.98 L526.89 315.00 L526.99 314.01 L527.10 313.03 L527.21 312.04 L527.32 311.06 L527.44 310.07 L527.55 309.09 L527.67 308.10 L527.79 307.12 L527.91 306.14 L528.04 305.15 L528.16 304.17 L528.29 303.19 L528.42 302.20 L528.55 301.22 L528.68 300.24 L528.82 299.25 L528.96 298.27 L529.10 297.29 L529.24 296.30 L529.39 295.32 L529.54 294.34 L529.69 293.36 L529.84 292.37 L530.00 291.39 L530.16 290.41 L530.32 289.43 L530.48 288.44 L530.65 287.46 L530.82 286.48 L531.00 285.50 L531.18 284.52 L531.36 283.54 L531.54 282.56 L531.73 281.58 L531.92 280.59 L532.12 279.61 L532.32 278.63 L532.52 277.65 L532.73 276.67 L532.94 275.69 L533.16 274.71 L533.38 273.73 L533.60 272.75 L533.83 271.77 L534.07 270.79 L534.31 269.81 L534.55 268.84 L534.80 267.86 L535.06 266.88 L535.32 265.90 L535.58 264.92 L535.86 263.94 L536.13 262.96 L536.42 261.99 L536.71 261.01 L537.01 260.03 L537.31 259.05 L537.62 258.07 L537.94 257.10 L538.26 256.12 L538.60 255.14 L538.94 254.17 L539.29 253.19 L539.64 252.21 L540.01 251.24 L540.38 250.26 L540.77 249.28 L541.16 248.31 L541.56 247.33 L541.97 246.35 L542.40 245.38 L542.83 244.40 L543.27 243.43 L543.72 242.45 L544.19 241.47 L544.66 240.50 L545.15 239.52 L545.65 238.55 L546.16 237.57 L546.69 236.59 L547.23 235.62 L547.78 234.64 L548.34 233.67 L548.92 232.69 L549.51 231.71 L550.12 230.74 L550.74 229.76 L551.38 228.78 L552.03 227.81 L552.70 226.83 L553.38 225.85 L554.07 224.87 L554.79 223.89 L555.52 222.92 L556.26 221.94 L557.02 220.96 L557.80 219.98 L558.59 219.00 L559.40 218.02 L560.22 217.03 L561.06 216.05 L561.92 215.07 L562.79 214.08 L563.67 213.10 L564.56 212.11 L565.47 211.13 L566.40 210.14 L567.33 209.15 L568.28 208.16 L569.23 207.17 L570.20 206.18 L571.17 205.19 L572.15 204.19 L573.13 203.20 L574.13 202.20 L575.12 201.21 L576.12 200.21 L577.12 199.21 L578.12 198.21 L579.12 197.20 L580.11 196.20 L581.11 195.20 L582.10 194.19 L583.08 193.18 L584.05 192.17 L585.02 191.17 L585.98 190.15 L586.93 189.14 L587.87 188.13 L588.79 187.12 L589.70 186.10 L590.60 185.09 L591.49 184.07 L592.36 183.05 L593.21 182.03 L594.05 181.01 L594.88 179.99 L595.69 178.97 L596.48 177.95 L597.25 176.93 L598.01 175.91 L598.75 174.88 L599.48 173.86 L600.19 172.84 L600.88 171.81 L601.56 170.79 L602.22 169.76 L602.86 168.74 L603.49 167.71 L604.10 166.69 L604.70 165.66 L605.28 164.64 L605.85 163.61 L606.41 162.59 L606.95 161.56 L607.47 160.53 L607.99 159.51 L608.49 158.48 L608.98 157.46 L609.45 156.43 L609.91 155.40 L610.37 154.38 L610.81 153.35 L611.24 152.33 L611.65 151.30 L612.06 150.28 L612.46 149.25 L612.85 148.23 L613.23 147.20 L613.60 146.18 L613.96 145.15 L614.31 144.13 L614.65 143.10 L614.98 142.08 L615.31 141.05 L615.63 140.03 L615.94 139.00 L616.25 137.98 L616.54 136.96 L616.83 135.93 L617.12 134.91 L617.39 133.89 L617.67 132.86 L617.93 131.84 L618.19 130.82 L618.44 129.80 L618.69 128.77 L618.93 127.75 L619.17 126.73 L619.40 125.71 L619.63 124.69 L619.85 123.67 L620.07 122.64 L620.28 121.62 L620.49 120.60 L620.70 119.58 L620.90 118.56 L621.09 117.54 L621.29 116.52 L621.47 115.50 L621.66 114.48 L621.84 113.46 L622.02 112.44 L622.19 111.42 L622.36 110.40 L622.53 109.38 L622.70 108.36 L622.86 107.35 L623.02 106.33 L623.17 105.31 L623.32 104.29 L623.47 103.27 L623.62 102.25 L623.77 101.24 L623.91 100.22 L624.05 99.20 L624.19 98.18 L624.32 97.17 L624.45 96.15 L624.58 95.13 L624.71 94.11 L624.84 93.10 L624.96 92.08 L625.08 91.06 L625.20 90.05 L625.32 89.03 L625.44 88.01 L625.55 87.00 L625.66 85.98 L625.77 84.97 L625.88 83.95 L625.99 82.93 L626.09 81.92 L626.20 80.90 L626.30 79.89 L626.40 78.87 L626.50 77.86 L626.60 76.84 L626.69 75.83 L626.79 74.81 L626.88 73.80 L626.97 72.78 L627.06 71.77 L627.15 70.75 L627.24 69.74 L627.33 68.72 L627.41 67.71 L627.50 66.70 L627.58 65.68 L627.66 64.67 L627.74 63.65 L627.82 62.64 L627.90 61.63 L627.98 60.61 L628.06 59.60 L628.13 58.59 L628.21 57.57 L628.28 56.56 L628.35 55.55 L628.43 54.53 L628.50 53.52 L628.57 52.51 L628.64 51.49 L628.70 50.48 L628.77 49.47 L628.84 48.46 L628.90 47.44 L628.97 46.43 L629.03 45.42 L629.09 44.41 L629.16 43.39 L629.22 42.38 L629.28 41.37 L629.34 40.36 L629.40 39.35 L629.46 38.33 L629.52 37.32 L629.57 36.31 L629.63 35.30 L629.69 34.29 L629.74 33.27 L629.80 32.26 L629.85 31.25 L629.90 30.24 L629.96 29.23 L630.01 28.22 L630.06 27.21 L630.11 26.19 L630.16 25.18 L630.21 24.17 L630.26 23.16 L630.31 22.15 L630.36 21.14 L630.41 20.13 L630.45 19.12 L630.50 18.11 L630.55 17.10 L630.59 16.09 L630.64 15.08 L630.68 14.07 L630.73 13.05 L630.77 12.04 L630.82 11.03 L630.86 10.02 L630.90 9.01 L630.94 8.00 L630.99 6.99 L631.03 5.98 L631.07 4.97 L631.11 3.96 L631.15 2.95 L631.19 1.94 L631.23 0.93 L631.27 -0.08 M647.05 400.02 L647.06 399.99 L647.09 399.00 L647.13 398.01 L647.17 397.02 L647.21 396.03 L647.25 395.04 L647.29 394.05 L647.33 393.06 L647.37 392.07 L647.41 391.07 L647.46 390.08 L647.50 389.09 L647.54 388.10 L647.58 387.11 L647.63 386.12 L647.67 385.13 L647.72 384.15 L647.76 383.16 L647.81 382.17 L647.85 381.18 L647.90 380.19 L647.94 379.20 L647.99 378.21 L648.04 377.22 L648.09 376.23 L648.14 375.24 L648.19 374.25 L648.23 373.26 L648.29 372.27 L648.34 371.28 L648.39 370.29 L648.44 369.30 L648.49 368.31 L648.55 367.33 L648.60 366.34 L648.65 365.35 L648.71 364.36 L648.76 363.37 L648.82 362.38 L648.88 361.39 L648.93 360.40 L648.99 359.42 L649.05 358.43 L649.11 357.44 L649.17 356.45 L649.23 355.46 L649.29 354.47 L649.36 353.49 L649.42 352.50 L649.48 351.51 L649.55 350.52 L649.61 349.54 L649.68 348.55 L649.75 347.56 L649.82 346.57 L649.88 345.58 L649.95 344.60 " style="fill:none;stroke:#000000;stroke-width:1;" /></g></svg>